<svg width="40" height="40" viewBox="0 0 40 40" fill="none" xmlns="http://www.w3.org/2000/svg">
<path fill-rule="evenodd" clip-rule="evenodd" d="M0.416667 5C0.416667 4.66848 0.548363 4.35054 0.782783 4.11612C1.0172 3.8817 1.33515 3.75 1.66667 3.75H6.39667C6.96333 3.75 7.46167 4.13333 7.605 4.68333L8.85667 9.46C8.97903 9.42125 9.10664 9.40157 9.235 9.40167H36.6667C36.8666 9.4017 37.0637 9.44969 37.2412 9.54164C37.4188 9.63358 37.5717 9.76678 37.6872 9.93005C37.8026 10.0933 37.8772 10.2819 37.9046 10.48C37.9321 10.678 37.9117 10.8798 37.845 11.0683L32.17 27.085C32.0836 27.3284 31.9239 27.539 31.7129 27.6879C31.5019 27.8368 31.2499 27.9168 30.9917 27.9167H12.0717C11.7954 27.9165 11.5271 27.8248 11.3084 27.6559C11.0898 27.4871 10.9333 27.2506 10.8633 26.9833L5.43167 6.25H1.66667C1.33515 6.25 1.0172 6.1183 0.782783 5.88388C0.548363 5.64946 0.416667 5.33152 0.416667 5ZM9.49667 11.9017L13.0367 25.4167H30.1083L34.8967 11.9017H9.49667ZM15 34.1667C15 34.8297 14.7366 35.4656 14.2678 35.9344C13.7989 36.4033 13.163 36.6667 12.5 36.6667C11.837 36.6667 11.2011 36.4033 10.7322 35.9344C10.2634 35.4656 10 34.8297 10 34.1667C10 33.5036 10.2634 32.8677 10.7322 32.3989C11.2011 31.9301 11.837 31.6667 12.5 31.6667C13.163 31.6667 13.7989 31.9301 14.2678 32.3989C14.7366 32.8677 15 33.5036 15 34.1667ZM30.8333 36.6667C31.4964 36.6667 32.1323 36.4033 32.6011 35.9344C33.0699 35.4656 33.3333 34.8297 33.3333 34.1667C33.3333 33.5036 33.0699 32.8677 32.6011 32.3989C32.1323 31.9301 31.4964 31.6667 30.8333 31.6667C30.1703 31.6667 29.5344 31.9301 29.0656 32.3989C28.5967 32.8677 28.3333 33.5036 28.3333 34.1667C28.3333 34.8297 28.5967 35.4656 29.0656 35.9344C29.5344 36.4033 30.1703 36.6667 30.8333 36.6667Z" fill="#3A3A3A"/>
</svg>
